<svg xmlns="http://www.w3.org/2000/svg" viewBox="0 0 1000 1000"><defs><linearGradient id="b" x1="510" x2="509.9" y1="544.8" y2="278.8" gradientTransform="matrix(1 -1 1 1 -400.2 462.8)" gradientUnits="userSpaceOnUse"><stop offset="0" stop-color="#3c1a0f"/><stop offset="1" stop-color="#d7bbb3"/></linearGradient><linearGradient id="a" x1="498.8" x2="498.8" y1="750.3" y2="353.8" gradientTransform="matrix(1 -1 1 1 -400.2 462.8)" gradientUnits="userSpaceOnUse"><stop offset="0" stop-color="#391b0f"/><stop offset=".1" stop-color="#5b2318"/><stop offset=".3" stop-color="#5b2318"/><stop offset="1" stop-color="#905036"/></linearGradient></defs><path fill="url(#a)" stroke="#391b0f" stroke-width="2" d="M260.2 242.5C470.2 49.9 704 47.5 770.1 50.4c54.6 2.3 100.8 8 121.6 12.4 34.7 7.3 25.2 7.3 46.7 33s34.2 27 35 68.4c.6 34.2 6 206.3-60.3 357.3-66.4 151-113 188.5-173.3 243.8-60.3 55.3-197.6 142.9-350.6 174.1-79.3 16.2-298 7.7-312-10.3a104 104 0 0 0-21-22.5c-15.1-16.6-25.3-51.2-27-79.9s-13-189.9 60.6-346.1c73.7-156.3 170.4-238.1 170.4-238.1z"/><path fill="#fff" d="M81.8 498.5A639.1 639.1 0 0 0 44.4 617c4.8 9.9 10.7 21.8 12.4 24.4 2.6 4 9.8 7.2 9.8 7.2s-.2 5.7 6.8 13.4c7 7.6 100.3 117.6 136 158.8 35.5 41.2 60.5 66 63.8 69.6 1.8 2 5.4 4.4 8.2 6.1a864 864 0 0 0 59.3-18.3c25.8-9.4 41.7-16 51.3-20.2-1-3.5-2.9-8.4-6.5-11-6-4.2-101.4-104.6-149.4-160.5a11579 11579 0 0 0-122-139c-3.3-3.5-3.5-13.1-3.5-13.1s-3 3.8-10.5-5.6a151.2 151.2 0 0 1-16-24.4l-2.3-5.8zM552.3 77.8a76.3 76.3 0 0 1 22.3 7c10.1 6 7.3 4.3 16 12.6 6.1 5.9 3.6 6.8 1.6 6.9 3.4.2 13 1 15.7 3.9 3.2 3.5 82.2 81.7 133.7 134.3a2372.2 2372.2 0 0 1 135 154.3 23 23 0 0 0 8.2 7.6 630.3 630.3 0 0 0 44.8-98.6c-.2-4.3-.8-8.3-2.2-9.8-3.2-3.5-55.7-68.3-93.7-107.4-38-39-101.2-98.6-108.3-106.3-7-7.7-17.7-8.2-17.7-8.2s-.4-6.6-4.2-9.6a61.2 61.2 0 0 0-24.8-11.2c-36.1 3.7-79.2 11-126.4 24.5z"/><path fill="url(#b)" d="M289.8 288.5C153.4 415.4 100 522.7 63 645 25.4 769 32.8 835.6 32.4 851.8c-.3 11.3 3.8 20.5 11.4 33.8-6-11-8.7-17.7-8.3-28.5.7-16-7.8-85.5 31.2-208 39-122.7 94.5-230.4 235.8-360C443.7 159.6 538.7 113.4 686 79.8 825.9 48 908.9 69.4 921.6 74.3c-1.2-1.2-2.2-2-3-2.4-5.4-3.1-87-27.9-236.2 3.9-149.1 31.7-244.8 77.1-386 206.7l-6.6 6zM57.6 909.3c4.3 4.8 14.2 14 30.8 18.5 40.7 11.2 150.5-10 255-44.4s242.9-113.6 329-192.6C758.3 612 803.5 565 877 433.4 950.5 302 960 218.7 966.3 172c4.8-35.8-2.7-50.4-8-57 5 6.5 10.6 20.1 4 57.3-8.2 45.8-15.7 125.3-90.2 255.7-74.5 130.3-119.9 177.3-205.9 256.2-86 78.9-223.7 159-327.2 194.5-103.4 35.4-214 55.9-254 45.5a57.8 57.8 0 0 1-27.4-14.9zM958.4 115l-1-1.3 1 1.3zm-4.4-5.2 1.3 1.6 1 1-2.3-2.6z" opacity=".5"/><path fill="none" stroke="#000" stroke-dasharray="32 4" stroke-width="4" d="M146.1 543c-7.1-.4-10.2-1.5-5.6-12.6S168.6 426.8 311 296.2s251.7-165.8 266.7-166.7c15-1 9.5 6 8 16.2s6.2 46.6-7.3 61.9-21.6 23.7-21.6 23.7 5.3-14.6-5-25.9S454 231 343.3 332.6c-110.8 101.6-134.6 142.1-131 155.7 3.2 12.5 32.6 3.4 32.6 3.4s-5.3 16.8-18.5 26C202.8 534 146 543 146 543z" opacity=".3"/><path fill="none" stroke="#000" stroke-dasharray="32 4" stroke-width="4" d="M104 479.3c-.2 7.2-2.5 18.7 6.2 12.1 9.6-7.2 36.7-88.3 179-218.8 142.3-130.6 230-164.2 243.4-170.8 10.9-5.4-3.3-7.4-15-5.5-49.8 8.2-178.4 80.5-249.9 153.9-120.8 119.4-150.3 188-163.6 229.1z" opacity=".3"/><path fill="#eee" stroke="#b8b8b8" d="M142.4 452c-4.6-5-5.4-8 1-18.5a174.6 174.6 0 0 1 21.3-27.9c6.7-7 14.3-11 19-17.2 4.7-6.1 11.7-20 18.4-28 6.8-8 20-17.1 23.1-21.9 3.2-4.7 7-14.8 19.4-27 12.3-12 20.4-16.6 24.5-20.3 4-3.7 7.3-9.4 19.1-22.1 11.9-12.6 19.9-16.2 26.5-22.2 6.7-6 4.4-10.6 20.2-22s25.6-14 31.7-19.6c6.2-5.6 11.5-15.1 23.6-22.4 12.1-7.2 21.4-7.3 29.5-12.8 8-5.4 13.4-14 22-20 8.6-5.9 33.3-19.9 39.6-19.1 6.3.8 10.7 1.5 15.3 6.6 4.7 5.1-4.8 8-13.3 13-8.6 5-18.3 12.9-22.3 16.6-4.1 3.7-16.4 14.9-22.5 18.5-6 3.7-18.5 9.4-29 15.3-10.6 5.8-15.5 15-25.7 23.2-10.1 8.4-26.1 14.4-30.2 19.1a439.7 439.7 0 0 1-22.2 24c-5.7 5-18.3 13.8-23.4 18.4-5.1 4.7-16.7 20.7-22.8 25.4-6 4.6-16.2 11.9-24 19.9-7.6 8-12.1 19.4-20.3 27.9-8.3 8.4-18.4 15.7-25.2 23.7-6.7 8-8 15.8-15.9 25.7-7.8 9.9-16 16.4-23.2 24.8-7.2 8.5-12.5 16-16.2 23.2-3.8 7.2-6.4 10.5-9.2 6.4-2.7-4-8.8-10.7-8.8-10.7z"/><path fill="#fff" stroke="#b8b8b8" d="M134.2 442.8c-2.2-3-5.2-5.7 1.4-14.7s9.5-9.7 11.2-7.3c1.8 2.4 10.6 13.7 17.8 22 7.1 8.4 18.6 19.2 21.8 22.8 3.2 3.5 3.3 7.9 3.4 12.3 0 4.4.7 7.3-5.2 6.3s-11.8-3.1-18.3-9.1a400 400 0 0 1-23.6-23.6c-3-3.8-8.5-8.7-8.5-8.7zM172.5 391.3c-2-3.2-2.5-8.2 1-13 3.7-4.8 5.9-8.3 8.2-8 2.3.4 3.8 2.6 6.2 5.8s6.4 9.6 15.3 19.3c9 9.8 15.5 13.7 19.2 17.7 3.7 4 9.6 6.7 8.6 10.5-.9 3.9-1.3 8.3-4.3 9.4s-12.4.5-20-6c-7.4-6.6-19.5-16-24.7-21.6-5.2-5.7-9.5-14.2-9.5-14.2zM297.6 249.4c-1.3-2.3-.7-6.5 2.7-9.6s6.6-11.4 10.8-10.7c4.1.6 6.1 8.6 12.8 15 6.7 6.3 23.2 23.3 30 27.8 6.8 4.5 8 7.8 8.9 11.6.7 3.7-.4 7.4-3.2 9.2-2.9 1.7-5.7 2.5-15.7-3.5s-29-21.8-34.3-27.6c-5.3-5.8-12-12.1-12-12.1zM358.9 189.7c3.9-3.6 7.8 1.7 11.9 5.1 4 3.5 26.3 26.8 31.2 32.1 5 5.4 12.3 7.5 11.6 12.6-.7 5.1 2 7.1-2.3 10.2-4.3 3-11.8 3.7-17.6-2.6s-25.9-27.2-30-30.7c-4-3.4-11.2-7.5-13.5-9.9-2.2-2.4-5.9-3.5-1-8l9.7-8.9zM415.4 155.7c4.7-1.6 8.8 0 14.6 5.3a1373 1373 0 0 1 31.4 30.3c3 3.4 7.4 12 6.7 16.1-.6 4.2-6 10-11 8.4s-12-3.3-15.8-12.3c-3.9-9-23.2-25.3-26.8-29.2-3.5-3.8-7.9.2-11.4-3.7-3.6-3.9-4.4-6.7.4-9.3s11.8-5.6 11.8-5.6zM266.2 274.7c4.3-3.1 4.6 3 8.6 6.4s25.6 22 32.2 30.3 10.7 11.6 8 19.4c-2.6 7.8-3.5 7.8-12.7 3.7-9.1-4.2-17.5-16.2-25.5-24-8-7.8-15.7-14.2-20.2-19-4.4-4.9-2.4-7.6.5-10.2 2.9-2.7 9.1-6.6 9.1-6.6zM466 126.2c7.1-3 11.8-3.7 16.3.3 4.5 3.9 32 27 35.4 32.7 3.5 5.8 7.3 13.9 5.8 18-1.6 4.1 0 10.7-11.4 4.1-11.4-6.5-18.2-10-23-16.3-5-6.3-9.5-19-16.7-24-7.3-5-9.2-3.2-12-5.2-2.6-2 1.4-8.4 1.4-8.4zM218.5 323c3.4-3.2 2.9-2.7 8.2 3 5.4 6 7 8.8 14.7 17 7.5 8.3 10.4 7.5 15.7 13.3 5.3 5.8 10 7.9 12.5 12.6 2.6 4.8 3 5.3 1 10.8-2.2 5.5-12.4 6-23.2-3.8a503 503 0 0 1-35.3-35.5c-3.5-4.8-1.9-9.9.5-11.2s5.9-6.3 5.9-6.3z"/></svg>